<svg height='100px' width='100px'  fill="#000000" xmlns="http://www.w3.org/2000/svg" xmlns:xlink="http://www.w3.org/1999/xlink" version="1.1" x="0px" y="0px" viewBox="0 0 100 100" enable-background="new 0 0 100 100" xml:space="preserve"><g><circle cx="22.392" cy="40.972" r="3.907"></circle><circle cx="65.192" cy="40.972" r="3.907"></circle><path d="M27.509,71.134h32.566c3.772,0,6.617-1.775,6.617-4.129v-9.312c0-2.354-2.845-4.129-6.617-4.129H27.509   c-3.772,0-6.617,1.775-6.617,4.129v9.312C20.892,69.359,23.737,71.134,27.509,71.134z M29.936,68.134h-2.427   c-2.249,0-3.517-0.838-3.617-1.129l-0.001-3.656h6.045V68.134z M57.648,56.564h2.427c2.249,0,3.518,0.838,3.617,1.129l0.001,3.656   h-6.045V56.564z M57.648,63.35h6.046l0.001,3.628c-0.103,0.319-1.372,1.157-3.62,1.157h-2.427V63.35z M48.97,56.564h6.678v4.785   H48.97V56.564z M48.97,63.35h6.678v4.785H48.97V63.35z M40.614,56.564h6.356v4.785h-6.356V56.564z M40.614,63.35h6.356v4.785   h-6.356V63.35z M31.936,56.564h6.678v4.785h-6.678V56.564z M31.936,63.35h6.678v4.785h-6.678V63.35z M27.509,56.564h2.427v4.785   H23.89l-0.001-3.628C23.991,57.403,25.26,56.564,27.509,56.564z"></path><path d="M93.916,32.328c-1.34-3.805-10.456-3.989-13.482-1.215v-8.577c0-6.757-5.498-12.255-12.255-12.255H19.406   c-6.758,0-12.256,5.498-12.256,12.255v48.774c0,6.757,5.498,12.255,12.256,12.255h48.773c6.757,0,12.255-5.498,12.255-12.255   V46.692c2.166,2.484,9.983,5.253,12.444,2.095c2.001-2.565-0.617-7.159-2.679-9.556C92.546,37.388,94.761,34.728,93.916,32.328z    M75.434,71.309c0,4-3.254,7.255-7.255,7.255H19.406c-4.001,0-7.256-3.254-7.256-7.255v-19.98h63.284V71.309z M75.434,48.329H12.15   V33.616h63.284V48.329z M75.434,30.616H12.15v-8.081c0-4,3.255-7.255,7.256-7.255h48.773c4,0,7.255,3.254,7.255,7.255V30.616z    M91.086,33.324c0.338,0.959-3.009,4.36-5.511,5.242c-0.1,0.035-0.202,0.048-0.304,0.072c-0.15-2.122-1.436-3.93-3.254-4.823   C83.83,31.285,90.734,32.324,91.086,33.324z M90.513,46.943c-0.762,0.977-7.03-0.565-8.217-2.809   c0.992-0.558,1.811-1.387,2.337-2.398c1.194-0.018,2.05-0.316,3.035-0.837C88.821,42.143,91.292,45.942,90.513,46.943z"></path></g></svg>