<svg height='100px' width='100px'  fill="#000000" xmlns="http://www.w3.org/2000/svg" xmlns:xlink="http://www.w3.org/1999/xlink" version="1.1" x="0px" y="0px" viewBox="0 0 100 100" enable-background="new 0 0 100 100" xml:space="preserve"><path d="M79.294,8.468H22.387c-7.655,0-13.883,6.228-13.883,13.882v56.908c0,7.654,6.228,13.882,13.883,13.882h56.907  c7.654,0,13.882-6.228,13.882-13.882V22.35C93.176,14.696,86.948,8.468,79.294,8.468z M22.387,13.468h56.907  c4.897,0,8.882,3.984,8.882,8.882v10.816h-3.687c-1.173-0.712-2.667-1.135-4.317-1.135H61.544c-1.649,0-3.145,0.423-4.317,1.135  H44.598c-1.205-0.805-2.791-1.292-4.558-1.292H21.412c-1.767,0-3.353,0.486-4.558,1.292h-3.351V22.35  C13.504,17.453,17.488,13.468,22.387,13.468z M58.667,38.167h24.382v11.462c0,0.377-1.087,1.236-2.877,1.236H61.544  c-1.79,0-2.877-0.859-2.877-1.236V38.167z M18.535,38.167h24.382v11.306c0,0.377-1.087,1.236-2.877,1.236H21.412  c-1.79,0-2.877-0.859-2.877-1.236V38.167z M79.294,88.14H22.387c-4.898,0-8.883-3.984-8.883-8.882V38.167h1.031v11.306  c0,2.936,3.021,5.236,6.877,5.236H40.04c3.856,0,6.877-2.3,6.877-5.236V38.167h7.75v11.462c0,2.936,3.021,5.236,6.877,5.236h18.628  c3.856,0,6.877-2.3,6.877-5.236V38.167h1.127v41.091C88.176,84.155,84.191,88.14,79.294,88.14z M69.838,58.804H31.842  c-4.259,0-7.471,1.964-7.471,4.568v10.864c0,2.604,3.212,4.568,7.471,4.568h37.996c4.259,0,7.471-1.964,7.471-4.568V63.372  C77.309,60.768,74.097,58.804,69.838,58.804z M74.309,63.372v4.432H66.84v-6h2.998C72.771,61.804,74.309,62.969,74.309,63.372z   M44.965,67.804H36.84v-6h8.125V67.804z M46.965,61.804h7.75v6h-7.75V61.804z M44.965,69.804v6H36.84v-6H44.965z M46.965,69.804  h7.75v6h-7.75V69.804z M56.715,69.804h8.125v6h-8.125V69.804z M56.715,67.804v-6h8.125v6H56.715z M31.842,61.804h2.998v6h-7.469  v-4.432C27.371,62.969,28.908,61.804,31.842,61.804z M27.371,74.236v-4.432h7.469v6h-2.998  C28.908,75.804,27.371,74.639,27.371,74.236z M69.838,75.804H66.84v-6h7.469v4.432C74.309,74.639,72.771,75.804,69.838,75.804z   M25.422,44.417c0-2.518,2.041-4.559,4.56-4.559c2.518,0,4.559,2.041,4.559,4.559c0,2.519-2.041,4.56-4.559,4.56  C27.463,48.976,25.422,46.935,25.422,44.417z M66.813,44.26c0-2.518,2.041-4.559,4.56-4.559c2.518,0,4.559,2.041,4.559,4.559  c0,2.519-2.041,4.56-4.559,4.56C68.854,48.82,66.813,46.779,66.813,44.26z"></path></svg>