<svg height='100px' width='100px'  fill="#000000" xmlns="http://www.w3.org/2000/svg" xmlns:xlink="http://www.w3.org/1999/xlink" version="1.1" x="0px" y="0px" viewBox="0 0 100 100" enable-background="new 0 0 100 100" xml:space="preserve"><path d="M76.206,6.586h-49.91c-6.884,0-12.484,5.6-12.484,12.482v49.911c0,6.65,5.228,12.102,11.79,12.463  c5.619,3.187,21.487,11.97,25.649,11.97c4.074,0,18.884-8.131,25.65-11.97c6.561-0.362,11.788-5.813,11.788-12.463V19.069  C88.688,12.186,83.089,6.586,76.206,6.586z M83.688,68.979c0,4.126-3.356,7.482-7.482,7.482h-0.662l-0.575,0.328  c-9.648,5.497-21.443,11.494-23.718,11.623c-2.274-0.128-14.069-6.126-23.717-11.623l-0.576-0.328h-0.662  c-4.127,0-7.484-3.356-7.484-7.482V19.069c0-4.126,3.357-7.482,7.484-7.482h49.91c4.126,0,7.482,3.356,7.482,7.482V68.979z   M47.918,65.149c-1.025,6.035-2.781,9.168-5.366,9.57c-0.737,0.173-1.481,0.261-2.212,0.261c0,0-0.001,0-0.001,0  c-11.618-0.002-17.695-21.091-17.695-32.396c0-6.202,3.848-9.758,10.558-9.758c3.524,0,7.205,1.005,9.134,1.939  C49.265,38.12,49.386,56.509,47.918,65.149z M79.679,42.584c0,11.306-6.042,32.396-17.591,32.396c-0.729,0-1.47-0.088-2.204-0.261  c-2.561-0.401-4.303-3.506-5.324-9.484c-1.479-8.66-1.386-27.095,5.534-30.467c1.919-0.935,5.581-1.941,9.084-1.941  C75.851,32.826,79.679,36.383,79.679,42.584z M49.388,78.701c0.594,1.228,1.195,2.891,0.688,3.838  c-0.213,0.399-0.596,0.663-1.049,0.725c-0.068,0.009-0.135,0.014-0.199,0.014c-0.418,0-0.799-0.18-1.072-0.508  c-0.672-0.804-0.529-2.514-0.295-3.807c0.08-0.435,0.43-0.77,0.869-0.83C48.767,78.073,49.194,78.302,49.388,78.701z M54.962,78.969  c0.281,1.335,0.463,3.094-0.258,3.892c-0.305,0.335-0.738,0.499-1.193,0.45c-0.068-0.008-0.135-0.02-0.197-0.035  c-0.406-0.101-0.732-0.368-0.918-0.752c-0.457-0.942,0.094-2.568,0.633-3.766c0.182-0.403,0.604-0.644,1.043-0.595  C54.511,78.21,54.87,78.535,54.962,78.969z"></path></svg>