<svg height='100px' width='100px'  fill="#000000" xmlns="http://www.w3.org/2000/svg" xmlns:xlink="http://www.w3.org/1999/xlink" version="1.1" x="0px" y="0px" viewBox="0 0 100 100" enable-background="new 0 0 100 100" xml:space="preserve"><path d="M78.454,7.665H21.547c-7.655,0-13.883,6.228-13.883,13.882v56.908c0,7.654,6.228,13.882,13.883,13.882h56.907  c7.654,0,13.882-6.228,13.882-13.882V21.546C92.336,13.892,86.108,7.665,78.454,7.665z M87.336,78.454  c0,4.897-3.984,8.882-8.882,8.882H21.547c-4.898,0-8.883-3.984-8.883-8.882V21.546c0-4.897,3.984-8.882,8.883-8.882h56.907  c4.897,0,8.882,3.984,8.882,8.882V78.454z M25.031,49.344c-2.519,0-4.56-2.041-4.56-4.56c0-2.518,2.041-4.559,4.56-4.559  c2.518,0,4.559,2.041,4.559,4.559C29.59,47.303,27.549,49.344,25.031,49.344z M79.527,44.785c0,2.519-2.041,4.56-4.559,4.56  c-2.519,0-4.56-2.041-4.56-4.56c0-2.518,2.041-4.559,4.56-4.559C77.486,40.226,79.527,42.267,79.527,44.785z M68.998,56.031H31.002  c-4.259,0-7.471,1.964-7.471,4.568v10.864c0,0.642,0.197,1.244,0.555,1.789v5.928c0,0.433,0.278,0.816,0.689,0.951  c0.103,0.033,0.207,0.049,0.311,0.049c0.313,0,0.615-0.147,0.807-0.41l2.877-3.932c0.7,0.125,1.448,0.193,2.232,0.193h37.996  c0.784,0,1.532-0.068,2.232-0.193l2.877,3.932c0.191,0.263,0.494,0.41,0.807,0.41c0.104,0,0.208-0.016,0.311-0.049  c0.411-0.134,0.689-0.518,0.689-0.951v-5.928c0.357-0.544,0.555-1.147,0.555-1.789V60.599  C76.469,57.995,73.257,56.031,68.998,56.031z M34,73.031c-4.627,0-2.418,0.004-3.17-0.008L34,68.69V73.031z M34,65.303l-0.006,0.008  c-9.221,12.602-2.118,2.895-7.908,10.808l0.445-15.521c0-1.808,6.468-1.568,7.469-1.568V65.303z M44.125,73.031H36v-6.476h8.125  V73.031z M44.125,64.555H36v-5.524h8.125V64.555z M53.875,73.031h-7.75v-6.476h7.75V73.031z M53.875,64.555h-7.75v-5.524h7.75  V64.555z M64,73.031h-8.125v-6.476H64V73.031z M64,64.555h-8.125v-5.524H64V64.555z M66,73.031V68.69l3.17,4.333  C68.418,73.035,70.496,73.031,66,73.031z M66.006,65.311c-0.001-0.005-0.005-0.009-0.006-0.014v-6.267h2.998  c2.934,0,4.471,1.165,4.471,1.568l0.445,15.521C68.485,68.699,74.186,76.49,66.006,65.311z"></path></svg>