<svg height='100px' width='100px'  fill="#000000" xmlns="http://www.w3.org/2000/svg" xmlns:xlink="http://www.w3.org/1999/xlink" version="1.1" x="0px" y="0px" viewBox="0 0 100 100" enable-background="new 0 0 100 100" xml:space="preserve"><path d="M25.031,37.56c-2.519,0-4.56-2.041-4.56-4.56c0-2.518,2.041-4.559,4.56-4.559c2.518,0,4.559,2.041,4.559,4.559  C29.59,35.519,27.549,37.56,25.031,37.56z M74.969,28.441c-2.519,0-4.56,2.041-4.56,4.559c0,2.519,2.041,4.56,4.56,4.56  c2.518,0,4.559-2.041,4.559-4.56C79.527,30.482,77.486,28.441,74.969,28.441z M92.34,21.65v56.91c0,7.65-6.229,13.88-13.89,13.88  h-56.9c-7.66,0-13.89-6.23-13.89-13.88V21.65C7.66,14,13.89,7.77,21.55,7.77h56.9C86.11,7.77,92.34,14,92.34,21.65z M87.34,21.65  c0-4.9-3.99-8.88-8.89-8.88h-56.9c-4.899,0-8.89,3.98-8.89,8.88v56.91c0,4.9,3.99,8.88,8.89,8.88h56.9c4.899,0,8.89-3.98,8.89-8.88  V21.65z M76.47,50.53v20.33c0,4-3.35,7.24-7.47,7.24H31c-4.12,0-7.47-3.24-7.47-7.24V50.53c0-4,3.35-7.24,7.47-7.24h38  C73.12,43.29,76.47,46.53,76.47,50.53z M34,69.1h-7.47v1.76c0,2.34,2.01,4.24,4.47,4.24h3V69.1z M34,46.29h-3  c-2.46,0-4.47,1.9-4.47,4.24v1.13H34V46.29z M44.12,69.1H36v6h8.12V69.1z M44.12,46.29H36v5.37h8.12V46.29z M53.88,69.1h-7.76v6  h7.76V69.1z M53.88,46.29h-7.76v5.37h7.76V46.29z M64,69.1h-8.12v6H64V69.1z M64,46.29h-8.12v5.37H64V46.29z M73.47,69.1H66v6h3  c2.46,0,4.47-1.9,4.47-4.24V69.1z M73.47,50.53c0-2.34-2.01-4.24-4.47-4.24h-3v5.37h7.47V50.53z"></path></svg>