<svg height='100px' width='100px'  fill="#000000" xmlns="http://www.w3.org/2000/svg" xmlns:xlink="http://www.w3.org/1999/xlink" version="1.1" x="0px" y="0px" viewBox="0 0 100 100" enable-background="new 0 0 100 100" xml:space="preserve"><path d="M78.454,7.665H21.547c-7.655,0-13.883,6.228-13.883,13.882v56.908c0,7.654,6.228,13.882,13.883,13.882h56.907  c7.654,0,13.882-6.228,13.882-13.882V21.546C92.336,13.892,86.108,7.665,78.454,7.665z M78.454,87.336H21.547  c-4.898,0-8.883-3.984-8.883-8.882V21.546c0-4.897,3.985-8.882,8.883-8.882h56.907c4.897,0,8.882,3.984,8.882,8.882v13.222  c-13.665-0.941-32.688-4.898-46.529-13.714c-0.408-0.259-0.942-0.191-1.27,0.163c-2.17,2.334,10.95,10.329,19.765,13.521  c-0.349,0.884-0.254,0.821-1.747,11.132c-0.377,2.607,1.499,5.036,4.19,5.426l15.299,2.215c2.691,0.39,5.18-1.408,5.557-4.014  l1.355-9.362c1.102,0.119,2.228,0.227,3.38,0.324v37.996C87.336,83.352,83.352,87.336,78.454,87.336z M68.999,58H31.001  c-4.259,0-7.47,1.964-7.47,4.568v10.864c0,2.604,3.211,4.568,7.47,4.568h37.997c4.259,0,7.47-1.964,7.47-4.568V62.568  C76.469,59.964,73.257,58,68.999,58z M73.469,62.568V67H66v-6h2.999C71.932,61,73.469,62.166,73.469,62.568z M44.125,67H36v-6h8.125  V67z M46.125,61h7.75v6h-7.75V61z M44.125,69v6H36v-6H44.125z M46.125,69h7.75v6h-7.75V69z M55.875,69H64v6h-8.125V69z M55.875,67  v-6H64v6H55.875z M31.001,61H34v6h-7.469v-4.432C26.531,62.166,28.068,61,31.001,61z M26.531,73.433V69H34v6h-2.999  C28.068,75,26.531,73.835,26.531,73.433z M68.999,75H66v-6h7.469v4.432C73.469,73.835,71.932,75,68.999,75z M25.031,46.922  c-2.519,0-4.56-2.041-4.56-4.56c0-2.518,2.041-4.559,4.56-4.559c2.518,0,4.559,2.041,4.559,4.559  C29.59,44.881,27.549,46.922,25.031,46.922z"></path></svg>