<svg height='100px' width='100px'  fill="#000000" xmlns="http://www.w3.org/2000/svg" xmlns:xlink="http://www.w3.org/1999/xlink" version="1.1" x="0px" y="0px" viewBox="0 0 100 100" enable-background="new 0 0 100 100" xml:space="preserve"><path d="M78.454,7.665H21.547c-7.655,0-13.883,6.228-13.883,13.882v56.908c0,7.654,6.228,13.882,13.883,13.882h56.907  c7.654,0,13.882-6.228,13.882-13.882V21.546C92.336,13.892,86.108,7.665,78.454,7.665z M87.336,78.454  c0,4.897-3.984,8.882-8.882,8.882H21.547c-4.898,0-8.883-3.984-8.883-8.882V21.546c0-4.897,3.984-8.882,8.883-8.882h56.907  c4.897,0,8.882,3.984,8.882,8.882V78.454z M68.999,58H31.001c-4.259,0-7.47,1.964-7.47,4.568v10.864c0,2.604,3.211,4.568,7.47,4.568  h37.998c4.259,0,7.47-1.964,7.47-4.568V62.568C76.469,59.964,73.258,58,68.999,58z M73.469,62.568V67H66v-6h2.999  C71.932,61,73.469,62.166,73.469,62.568z M44.125,67H36v-6h8.125V67z M46.125,61h7.75v6h-7.75V61z M44.125,69v6H36v-6H44.125z   M46.125,69h7.75v6h-7.75V69z M55.875,69H64v6h-8.125V69z M55.875,67v-6H64v6H55.875z M31.001,61H34v6h-7.469v-4.432  C26.531,62.166,28.068,61,31.001,61z M26.531,73.433V69H34v6h-2.999C28.068,75,26.531,73.835,26.531,73.433z M68.999,75H66v-6h7.469  v4.432C73.469,73.835,71.932,75,68.999,75z M29.336,49.344c-4.896,0-8.864-3.968-8.864-8.864c0-4.895,3.968-8.863,8.864-8.863  c4.896,0,8.863,3.968,8.863,8.863C38.199,45.376,34.231,49.344,29.336,49.344z M79.528,44.785c0,2.519-2.041,4.56-4.56,4.56  s-4.56-2.041-4.56-4.56c0-2.518,2.041-4.559,4.56-4.559S79.528,42.267,79.528,44.785z"></path></svg>