<svg xmlns="http://www.w3.org/2000/svg" xmlns:xlink="http://www.w3.org/1999/xlink" width="100" height="100" viewBox="0 0 100 100"><g><g transform="translate(50 50) scale(0.69 0.69) rotate(0) translate(-50 -50)" style="fill:#000000"><svg fill="#000000" xmlns="http://www.w3.org/2000/svg" xmlns:xlink="http://www.w3.org/1999/xlink" version="1.1" x="0px" y="0px" viewBox="0 0 24 24" style="enable-background:new 0 0 24 24;" xml:space="preserve"><g><g><path d="M6.5,12C5.672,12,5,12.672,5,13.5c0,0.652,0.419,1.202,1,1.408V17c0,0.276,0.224,0.5,0.5,0.5S7,17.276,7,17v-2.092    c0.581-0.207,1-0.756,1-1.408C8,12.672,7.328,12,6.5,12z"></path><path d="M13.5,15c-0.827,0-1.5,0.673-1.5,1.5v1c0,0.276,0.224,0.5,0.5,0.5h2c0.276,0,0.5-0.224,0.5-0.5v-1    C15,15.673,14.327,15,13.5,15z"></path><path d="M18.5,15c-0.827,0-1.5,0.673-1.5,1.5v1c0,0.276,0.224,0.5,0.5,0.5h2c0.276,0,0.5-0.224,0.5-0.5v-1    C20,15.673,19.327,15,18.5,15z"></path></g><path d="M24,3V2.5C24,1.122,22.878,0,21.5,0h-19C1.122,0,0,1.122,0,2.5V3H24z"></path><path d="M0.334,4L4.2,6.9C4.287,6.965,4.392,7,4.5,7h15c0.108,0,0.213-0.035,0.3-0.1L23.666,4H0.334z"></path><path d="M22,4l-2.8,2.1c-0.154,0.115-0.228,0.309-0.19,0.498l2,10C21.057,16.832,21.262,17,21.5,17c0.003,0,0.007,0,0.011,0   c0.243-0.005,0.446-0.184,0.483-0.424L23.929,4H22z"></path><path d="M2,4H0.071l1.935,12.576c0.037,0.24,0.24,0.418,0.483,0.424c0.004,0,0.008,0,0.011,0c0.238,0,0.443-0.168,0.49-0.402l2-10   C5.028,6.409,4.954,6.215,4.8,6.1L2,4z"></path><g><path d="M0,21v2.5C0,23.776,0.224,24,0.5,24h23c0.276,0,0.5-0.224,0.5-0.5V21H0z M20.5,23h-5c-0.276,0-0.5-0.224-0.5-0.5    s0.224-0.5,0.5-0.5h5c0.276,0,0.5,0.224,0.5,0.5S20.776,23,20.5,23z"></path></g><path d="M23.997,19.486c0-0.015-0.007-0.028-0.009-0.043c-0.008-0.069-0.029-0.131-0.062-0.188c-0.006-0.01-0.004-0.022-0.01-0.032   l-2-3c-0.122-0.184-0.35-0.266-0.561-0.201C21.144,16.085,21,16.28,21,16.5v1c0,0.827-0.673,1.5-1.5,1.5h-2   c-0.432,0-0.831-0.185-1.124-0.519c-0.19-0.217-0.563-0.217-0.753,0C15.331,18.815,14.932,19,14.5,19h-2   c-0.827,0-1.5-0.673-1.5-1.5v-1c0-0.276-0.224-0.5-0.5-0.5h-2C8.224,16,8,16.224,8,16.5V17c0,0.827-0.673,1.5-1.5,1.5   S5,17.827,5,17v-0.5C5,16.224,4.776,16,4.5,16h-2c-0.167,0-0.323,0.083-0.416,0.223l-2,3c-0.006,0.01-0.005,0.022-0.01,0.032   c-0.033,0.057-0.054,0.12-0.062,0.188c-0.002,0.015-0.008,0.028-0.009,0.043C0.003,19.491,0,19.495,0,19.5V20h0.5h23H24v-0.5   C24,19.495,23.997,19.491,23.997,19.486z"></path></g></svg></g></g></svg>