<svg height='100px' width='100px'  fill="#000000" xmlns="http://www.w3.org/2000/svg" xmlns:xlink="http://www.w3.org/1999/xlink" version="1.1" x="0px" y="0px" viewBox="0 0 512 512" style="enable-background:new 0 0 512 512;" xml:space="preserve"><g><g><path d="M284.146,236.993L296.151,71.21c1.145-15.824-2.768-29.043-11.313-38.229c-7.185-7.723-17.511-12.152-28.33-12.152    s-21.144,4.429-28.329,12.152c-8.544,9.186-12.455,22.404-11.31,38.229l12.005,165.783H284.146z"></path><path d="M363.81,244.993h-75.942h-62.711h-75.949c-36.339,0-65.903,29.527-65.903,65.821v52.326    c0,7.441,6.079,13.495,13.551,13.495h1.339h316.87h1.099c7.445,0,13.503-6.054,13.503-13.495v-52.326    C429.665,274.521,400.122,244.993,363.81,244.993z"></path><path d="M101.66,384.636L86.855,487.552l58.761,3.51l15.592-74.54c0.419-2.006,2.288-3.376,4.327-3.159    c2.039,0.211,3.588,1.929,3.588,3.979v74.783h168.387v-58.533c0-1.942,1.396-3.604,3.309-3.939    c1.92-0.337,3.791,0.753,4.452,2.578l21.328,58.911l59.525-3.588l-14.536-102.917H101.66z"></path></g></g></svg>