<svg xmlns="http://www.w3.org/2000/svg" xmlns:xlink="http://www.w3.org/1999/xlink" width="100" height="100" viewBox="0 0 100 100"><g><g transform="translate(50 50) scale(0.69 0.69) rotate(0) translate(-50 -50)" style="fill:#000000"><svg fill="#000000" xmlns="http://www.w3.org/2000/svg" viewBox="0 0 24 24" x="0px" y="0px"><title>Artboard 22</title><g data-name="Layer 42"><path d="M12,2C6.3,2,2,4.36,2,7.5v9C2,19.64,6.3,22,12,22s10-2.36,10-5.5v-9C22,4.36,17.7,2,12,2Zm8,10a2.33,2.33,0,0,1-1.12,1.7A12,12,0,0,1,12,15.5a12,12,0,0,1-6.89-1.8A2.34,2.34,0,0,1,4,12V10.87A13.87,13.87,0,0,0,12,13a14.07,14.07,0,0,0,8-2.15ZM12,4c4.71,0,8,1.84,8,3.5a1.91,1.91,0,0,1-.65,1.3C18,10.13,15.13,11,12,11,7.29,11,4,9.16,4,7.5S7.29,4,12,4Zm0,16c-4.71,0-8-1.84-8-3.5V15.35a14.06,14.06,0,0,0,8,2.15,14,14,0,0,0,8-2.15V16.5C20,18.16,16.71,20,12,20Z"></path></g></svg></g></g></svg>