<svg height='100px' width='100px'  fill="#000000" xmlns="http://www.w3.org/2000/svg" data-name="Layer 1" viewBox="0 0 100 100" x="0px" y="0px"><title>56</title><path d="M79.48553,93.95929H20.51428a1.01438,1.01438,0,0,1-1.01434-1.0144V85.41608a1.01439,1.01439,0,0,1,1.01434-1.01441H79.48553a1.0144,1.0144,0,0,1,1.01441,1.01441v7.52881A1.0144,1.0144,0,0,1,79.48553,93.95929ZM87.7926,34.65405a7.20737,7.20737,0,1,0,7.20734,7.2074A7.2074,7.2074,0,0,0,87.7926,34.65405Zm-75.58532,0a7.20737,7.20737,0,1,0,7.20733,7.2074A7.20736,7.20736,0,0,0,12.20728,34.65405ZM29.9574,56.25165c-3.36408,2.05566-7.96558-1.20081-11.94086-5.292a10.7244,10.7244,0,0,1-5.31525,1.684L19.308,79.11053a1.01457,1.01457,0,0,0,.9842.7688h59.4154a1.01455,1.01455,0,0,0,.98419-.7688l6.60675-26.46691a10.72731,10.72731,0,0,1-5.31524-1.68384c-3.97528,4.09118-8.57678,7.34741-11.94086,5.29187C64.09412,52.61688,57.43787,36.50128,53.48938,25.611a11.83991,11.83991,0,0,1-6.97888,0C42.562,36.50128,35.90576,52.61688,29.9574,56.25165ZM58.248,14.28876a8.24808,8.24808,0,1,0-8.248,8.24811A8.24805,8.24805,0,0,0,58.248,14.28876Z"></path></svg>