<svg height='100px' width='100px'  fill="#000000" xmlns="http://www.w3.org/2000/svg" xmlns:xlink="http://www.w3.org/1999/xlink" viewBox="0 0 24 24" version="1.1" x="0px" y="0px"><title>Empty box</title><desc>Created with Sketch.</desc><g stroke="none" stroke-width="1" fill="none" fill-rule="evenodd"><g fill="#000000" fill-rule="nonzero"><path d="M-3.25073302e-13,23.0000015 L-3.35731443e-13,6.00000153 L1.77207592,0.683773762 C1.90818997,0.275431623 2.29032881,1.5281373e-06 2.72075922,1.5281373e-06 L2.99825622,1.5281373e-06 L3,4.01736415e-08 L8,2.90143732e-08 L8,3.00000153 C8,3.55228628 8.44771525,4.00000153 9,4.00000153 L15,4.00000153 C15.5522847,4.00000153 16,3.55228628 16,3.00000153 L16,1.1159471e-08 L21.0000003,1.56319402e-13 L21.0017675,1.52812784e-06 L21.2792408,1.5281373e-06 C21.7096712,1.5281373e-06 22.09181,0.275431623 22.2279241,0.683773762 L24,6.00000153 L24.0000739,13.0001124 C24.0000739,13.0042162 24.0000493,13.0083143 24.0000739,13.0124064 L24,11 L24,23.0000015 C24,23.5522863 23.5522847,24.0000015 23,24.0000015 L1,24.0000015 C0.44771525,24.0000015 -3.25005666e-13,23.5522863 -3.25073302e-13,23.0000015 Z M1.05409255,6.00000153 L2,6.00000153 L2,3.16227919 L1.05409255,6.00000153 Z M3,6.00000153 L7,6.00000153 L7,10.0000015 C7,10.5522863 7.44771525,11.0000015 8,11.0000015 L16,11.0000015 C16.5522847,11.0000015 17,10.5522863 17,10.0000015 L17,6.00000153 L21.0000001,6.00000153 L21.0000003,1 L17,1.00000001 L17,3.00000153 C17,4.10457103 16.1045695,5.00000153 15,5.00000153 L9,5.00000153 C7.8954305,5.00000153 7,4.10457103 7,3.00000153 L7,1.00000003 L3,1 L3,6.00000153 Z M22.0000003,6.00000153 L22.9459074,6.00000153 L22.0000003,3.16228021 L22.0000003,6.00000153 Z M6,7.00000153 L1,7.00000153 L1,23.0000015 L23,23.0000015 L23,7.00000153 L18,7.00000153 L18,10.0000015 C18,11.104571 17.1045695,12.0000015 16,12.0000015 L8,12.0000015 C6.8954305,12.0000015 6,11.104571 6,10.0000015 L6,7.00000153 Z M10.5,20.0000015 L14.5,20.0000015 C14.7761424,20.0000015 15,20.2238592 15,20.5000015 C15,20.7761439 14.7761424,21.0000015 14.5,21.0000015 L10.5,21.0000015 C10.2238576,21.0000015 10,20.7761439 10,20.5000015 C10,20.2238592 10.2238576,20.0000015 10.5,20.0000015 Z M10.5,18.0000015 L16.5,18.0000015 C16.7761424,18.0000015 17,18.2238592 17,18.5000015 C17,18.7761439 16.7761424,19.0000015 16.5,19.0000015 L10.5,19.0000015 C10.2238576,19.0000015 10,18.7761439 10,18.5000015 C10,18.2238592 10.2238576,18.0000015 10.5,18.0000015 Z M3.5,18.0000015 L8.5,18.0000015 C8.77614237,18.0000015 9,18.2238592 9,18.5000015 L9,20.5000015 C9,20.7761439 8.77614237,21.0000015 8.5,21.0000015 L3.5,21.0000015 C3.22385763,21.0000015 3,20.7761439 3,20.5000015 L3,18.5000015 C3,18.2238592 3.22385763,18.0000015 3.5,18.0000015 Z M4,19.0000015 L4,20.0000015 L8,20.0000015 L8,19.0000015 L4,19.0000015 Z"></path></g></g></svg>