<svg height='100px' width='100px'  fill="#000000" xmlns="http://www.w3.org/2000/svg" xmlns:xlink="http://www.w3.org/1999/xlink" version="1.1" x="0px" y="0px" viewBox="0 0 100 100" enable-background="new 0 0 100 100" xml:space="preserve"><g><path d="M49.677,85.598c-1.54-2.948-2.414-6.299-2.414-9.854c0-8.616,5.112-16.039,12.471-19.402   c0.348-0.159,0.351-0.403,0.006-0.562c-1.186-0.543-1.964-0.897-1.966-0.899c-0.556-0.36-3.553-3.419-3.553-3.419   c-0.271-0.313-0.59-0.504-0.841-0.471c-0.268,0.009-0.469,0.243-0.473,0.823v0.12c0.506,4.994-18.54,4.994-18.032,0v-0.12   c-0.003-0.58-0.205-0.814-0.473-0.823c-0.251-0.033-0.572,0.158-0.838,0.471c0,0-3.568,3.45-3.58,3.461   C29.748,55.074,15.7,61.415,15.7,61.415c-1.189,0.536-2.29,2.364-2.462,4.087l-1.059,17.58c-0.172,1.723,0.704,3.119,1.952,3.119   h35.187C49.695,86.201,49.853,85.934,49.677,85.598z M27.247,78.64c0,0.441-0.353,0.798-0.79,0.798h-5.068   c-0.436,0-0.792-0.356-0.792-0.798V62.352c0-0.441,0.329-0.94,0.729-1.112l5.195-2.232c0.401-0.174,0.726,0.044,0.726,0.483V78.64z   "></path><path d="M68.582,56.483c-10.635,0-19.256,8.627-19.256,19.259C49.326,86.38,57.947,95,68.582,95c10.639,0,19.26-8.62,19.26-19.258   C87.842,65.11,79.221,56.483,68.582,56.483z M72.44,88.271c2.456-4.78,0.636-11.228-3.627-14.205   c0.284,1.28-2.946,5.129-4.304,7.114c-1.239,1.813-2.099,3.733-0.484,7.091c-5.134-2.896-6.488-5.631-5.714-9.373   c0.57-2.762,2.438-5.011,2.619-7.765c0.798,1.451,1.13,2.497,1.221,4.017c2.537-3.109,4.213-7.415,4.314-11.937   c0,0,6.61,3.884,7.042,9.75c0.569-1.21,0.855-3.129,0.288-4.373C75.503,69.835,85.495,80.886,72.44,88.271z"></path><path d="M31.567,28.823c0.652,0.045,1.114,1.497,1.291,1.877c0.109,0.232,0.336,0.123,0.315-0.029c0,0-0.063-0.876-0.119-2.005   c-0.014-0.018-0.039-0.036-0.051-0.057c-0.258-0.437-1.099-0.806-1.913-0.806c0,0-0.262,0-0.587,0s-0.85,0.248-1.067,0.629   c-0.54,0.943-0.662,2.304-0.443,4.427c0.013,0.116,0.295,2.833,0.829,4.088c0.373,0.874,1.06,1.563,1.956,1.972   c0.129,0.776,0.326,1.803,0.607,2.769c0.831,2.855,5.102,8.046,10.651,8.223c0.141,0.006,0.46,0.008,0.779,0.008l0.724-0.003   c5.572-0.053,10.031-5.383,10.86-8.228c0.281-0.969,0.479-1.994,0.605-2.769c0.898-0.408,1.585-1.098,1.958-1.974   c0.534-1.253,0.816-3.97,0.829-4.084c0.22-2.14,0.093-3.506-0.458-4.449c-0.22-0.379-0.742-0.634-1.062-0.626   c-0.29,0.007-0.58,0.018-0.58,0.018c-0.814,0-1.655,0.369-1.913,0.806c-0.008,0.012-0.022,0.022-0.03,0.035   c-0.055,1.144-0.138,2.026-0.138,2.026c-0.019,0.152,0.208,0.262,0.315,0.029c0.179-0.38,0.641-1.832,1.291-1.877   c0.438-0.023,0.715,0.467,0.79,0.71c0.124,0.408,0.22,1.224,0.047,2.924c-0.151,1.474-0.466,3.121-0.7,3.672   c-0.146,0.342-0.418,0.568-0.809,0.671c-1.106,0.298-1.356,0.963-1.406,1.331c-0.127,0.928-0.358,2.294-0.713,3.521   c-0.591,2.025-4.313,6.789-8.855,6.831c-0.224,0.006-1.23,0.008-1.506-0.002c-4.389-0.138-8.055-4.585-8.708-6.829   c-0.316-1.09-0.534-2.294-0.667-3.199c-0.017-0.111-0.033-0.221-0.048-0.321c-0.048-0.368-0.298-1.033-1.403-1.331   c-0.391-0.103-0.663-0.329-0.808-0.671c-0.234-0.551-0.549-2.198-0.7-3.672c-0.175-1.7-0.079-2.516,0.047-2.924   C30.854,29.29,31.132,28.8,31.567,28.823z"></path><path d="M37.912,17.395l-1.869-9.259c-0.091-0.45-0.482-0.62-0.857-0.354c-3.391,2.416-5.734,6.195-6.215,10.542   c-0.1,0.916-0.526,1.664-1.063,1.664c-0.538,0-0.974,0.742-0.974,1.664v2.912c0,0.92,0.746,1.666,1.67,1.666h0.817   c0.922,0,1.871,0.449,2.163,0.98c0.105,0.195,0.313,0.369,0.574,0.516c0.377,0.205,0.933,0.609,1.341,0.822   c1.529,0.786,5.603,1.354,10.394,1.354s8.863-0.567,10.393-1.354c0.41-0.213,0.964-0.617,1.341-0.822   c0.262-0.146,0.469-0.32,0.574-0.516c0.292-0.531,1.243-0.98,2.165-0.98h0.817c0.922,0,1.668-0.746,1.668-1.666v-2.912   c0-0.922-0.436-1.664-0.973-1.664c-0.536,0-0.963-0.748-1.064-1.664c-0.48-4.345-2.822-8.123-6.209-10.537   c-0.375-0.269-0.765-0.1-0.855,0.351l-1.871,9.257c-0.361,1.806-0.85,3.234-1.086,3.197c-0.236-0.042-0.232-1.55,0.008-3.37   l1.316-9.987c0.06-0.457-0.227-0.984-0.655-1.156C47.739,5.386,45.863,5,43.893,5c-1.966,0-3.84,0.386-5.562,1.075   c-0.427,0.172-0.717,0.701-0.655,1.158l1.316,9.988c0.24,1.82,0.244,3.328,0.008,3.37C38.763,20.629,38.275,19.2,37.912,17.395z"></path></g></svg>