<svg xmlns="http://www.w3.org/2000/svg" xmlns:xlink="http://www.w3.org/1999/xlink" width="100" height="100" viewBox="0 0 100 100"><g><g transform="translate(50 50) scale(0.69 0.69) rotate(0) translate(-50 -50)" style="fill:#000000"><svg fill="#000000" xmlns="http://www.w3.org/2000/svg" viewBox="0 0 64 64" x="0px" y="0px"><g><path d="M14,42V62H50V42Zm2,18V44H28V60Zm14,0V44h4V60Zm18,0H36V44H48Z"></path><path d="M39.974,10A4.948,4.948,0,0,0,41,7a4.985,4.985,0,0,0-9-2.969A4.981,4.981,0,1,0,24.026,10H10v8H54V10ZM36,4a3,3,0,0,1,0,6H33V7A3,3,0,0,1,36,4ZM25,7a3,3,0,0,1,6,0v3H28A3,3,0,0,1,25,7ZM12,16V12H28v4Zm18,0V12h4v4Zm22,0H36V12H52Z"></path><path d="M32,20A10,10,0,1,0,42,30,10.011,10.011,0,0,0,32,20Zm0,18a8,8,0,1,1,8-8A8.009,8.009,0,0,1,32,38Z"></path><path d="M32,27c1.221,0,2,.592,2,1h2c0-1.421-1.259-2.572-3-2.9V23H31v2.1c-1.741.326-3,1.477-3,2.9,0,1.683,1.757,3,4,3,1.221,0,2,.592,2,1s-.779,1-2,1-2-.592-2-1H28c0,1.421,1.259,2.572,3,2.9V37h2V34.9c1.741-.326,3-1.477,3-2.9,0-1.683-1.757-3-4-3-1.221,0-2-.592-2-1S30.779,27,32,27Z"></path><rect x="4" y="21" width="2" height="2"></rect><rect x="6" y="23" width="2" height="2"></rect><rect x="2" y="23" width="2" height="2"></rect><rect x="4" y="25" width="2" height="2"></rect><rect x="11" y="31" width="2" height="2"></rect><rect x="13" y="33" width="2" height="2"></rect><rect x="9" y="33" width="2" height="2"></rect><rect x="11" y="35" width="2" height="2"></rect><rect x="16" y="20" width="2" height="2"></rect><rect x="18" y="22" width="2" height="2"></rect><rect x="14" y="22" width="2" height="2"></rect><rect x="16" y="24" width="2" height="2"></rect><rect x="58" y="21" width="2" height="2"></rect><rect x="56" y="23" width="2" height="2"></rect><rect x="60" y="23" width="2" height="2"></rect><rect x="58" y="25" width="2" height="2"></rect><rect x="51" y="33" width="2" height="2"></rect><rect x="49" y="35" width="2" height="2"></rect><rect x="53" y="35" width="2" height="2"></rect><rect x="51" y="37" width="2" height="2"></rect><rect x="48" y="23" width="2" height="2"></rect><rect x="46" y="25" width="2" height="2"></rect><rect x="50" y="25" width="2" height="2"></rect><rect x="48" y="27" width="2" height="2"></rect></g></svg></g></g></svg>