<svg height='100px' width='100px'  fill="#000000" xmlns="http://www.w3.org/2000/svg" xmlns:xlink="http://www.w3.org/1999/xlink" version="1.1" x="0px" y="0px" viewBox="0 0 100 100" enable-background="new 0 0 100 100" xml:space="preserve"><g><g><path d="M62.4712944,94.4906006l-8.6155548-46.6943855c-0.0336227-0.1821823-0.1536598-0.309803-0.2915077-0.309803H46.435688    c-0.1378136,0-0.2578812,0.1276207-0.2914734,0.309803l-8.6155548,46.6943855    c-0.0226173,0.122406-0.0024986,0.2522202,0.0544662,0.3516083C37.6400604,94.9418182,37.7275505,95,37.8201637,95h24.359623    c0.0926132,0,0.1801033-0.0581818,0.2370377-0.1577911C62.473793,94.7428207,62.4938774,94.6130066,62.4712944,94.4906006z"></path></g><g><circle cx="49.9999809" cy="31.34622" r="7.6166825"></circle></g><g><path d="M63.7210426,48.3314285c-0.8354912,0-1.6709366-0.3187675-2.3082542-0.9560394    c-1.2748489-1.2748489-1.2748489-3.3416176,0-4.6164665c3.048584-3.0483208,4.7274933-7.1016006,4.7274933-11.4127884    c0-4.3112316-1.6789093-8.3645115-4.7274933-11.4128323c-1.2748489-1.2748508-1.2748489-3.3415737,0-4.6164227    c1.2745934-1.2745905,3.3418732-1.2745905,4.6164627,0c4.281456,4.2814503,6.6396179,9.9742908,6.6396179,16.0292549    c0,6.0549202-2.3581619,11.7477608-6.6396179,16.0292549C65.3919373,48.012661,64.556488,48.3314285,63.7210426,48.3314285z"></path></g><g><path d="M36.2789574,48.3314285c-0.8354454,0-1.6709366-0.3187675-2.3082123-0.9560394    c-4.2814484-4.2814941-6.6396122-9.9743347-6.6396122-16.0292549c0-6.0549641,2.3581638-11.7478046,6.6396122-16.0292549    c1.2745934-1.2745905,3.3418732-1.2745905,4.6164665,0c1.2748489,1.2748489,1.2748489,3.3415718,0,4.6164227    c-3.0486221,3.0483208-4.7274895,7.1016006-4.7274895,11.4128323c0,4.3111877,1.6788673,8.3644676,4.7274895,11.4127884    c1.2748489,1.2748489,1.2748489,3.3416176,0,4.6164665C37.949894,48.012661,37.1144485,48.3314285,36.2789574,48.3314285z"></path></g><g><path d="M73.0819397,57.6926231c-0.8354492,0-1.6708984-0.3187675-2.3082123-0.9560394    c-1.2748489-1.2748489-1.2748489-3.3416176,0-4.6164665c11.4547653-11.4547691,11.4547653-30.0929413,0-41.5477524    c-1.2748489-1.2748489-1.2748489-3.3415718,0-4.6164217c1.2745895-1.274591,3.3418732-1.274591,4.6164627,0    c14.0001984,14.0002012,14.0001984,36.7803955,0,50.7806396C74.7528763,57.3738556,73.9174271,57.6926231,73.0819397,57.6926231z"></path></g><g><path d="M26.9180202,57.6926231c-0.8354454,0-1.6709366-0.3187675-2.3082104-0.9560394    c-14.0002003-14.0002441-14.0002003-36.7804413,0-50.7806396c1.2745934-1.274591,3.3418732-1.274591,4.6164646,0    c1.2748508,1.2748499,1.2748508,3.3415728,0,4.6164217c-11.4548111,11.4548111-11.4548111,30.0929832,0,41.5477524    c1.2748508,1.2748489,1.2748508,3.3416176,0,4.6164665C28.5889587,57.3738556,27.7535114,57.6926231,26.9180202,57.6926231z"></path></g></g></svg>