<svg height='100px' width='100px'  fill="#000000" xmlns="http://www.w3.org/2000/svg" data-name="Layer 1" viewBox="0 0 100 100" x="0px" y="0px"><title>A</title><path d="M7.96667,33.43549,42.2312,50.47986a17.44325,17.44325,0,0,0,15.53766,0L92.03339,33.43549a5.34193,5.34193,0,0,0,0-9.56556L57.76886,6.82556a17.44325,17.44325,0,0,0-15.53766,0L7.96667,23.86993A5.34193,5.34193,0,0,0,7.96667,33.43549Z"></path><path d="M7.96375,47.66174l34.267,17.04938a17.472,17.472,0,0,0,15.53864,0l34.2669-17.04938a5.34477,5.34477,0,0,0,.35-9.3797L59.76917,54.51154a21.98384,21.98384,0,0,1-19.53827,0L7.61383,38.282A5.34479,5.34479,0,0,0,7.96375,47.66174Z"></path><path d="M7.96375,61.90118l34.267,17.03943a17.4724,17.4724,0,0,0,15.53864,0l34.2669-17.03943a5.3532,5.3532,0,0,0,.35-9.38958L59.76917,68.741a21.98333,21.98333,0,0,1-19.53827,0L7.61383,52.5116A5.35322,5.35322,0,0,0,7.96375,61.90118Z"></path><path d="M92.37622,66.751,59.76917,82.9704a21.897,21.897,0,0,1-19.53827,0L7.62384,66.751a5.34126,5.34126,0,0,0,.33991,9.3797L42.23071,93.17a17.40776,17.40776,0,0,0,15.53864,0l34.2669-17.0393A5.34124,5.34124,0,0,0,92.37622,66.751Z"></path></svg>