<svg height='100px' width='100px'  fill="#000000" xmlns="http://www.w3.org/2000/svg" xmlns:xlink="http://www.w3.org/1999/xlink" version="1.1" x="0px" y="0px" viewBox="0 0 100 100" style="enable-background:new 0 0 100 100;" xml:space="preserve"><g><path d="M77,51.06c0-5.42-3.3-10.07-8-12.04V31.5C69,20.75,60.48,12,50,12s-19,8.75-19,19.5v7.52c-4.7,1.98-8,6.62-8,12.04v21.88   C23,80.15,28.85,86,36.06,86h27.88C71.15,86,77,80.15,77,72.94V51.06z M52,71.5c0,1.1-0.9,2-2,2s-2-0.9-2-2v-10c0-1.1,0.9-2,2-2   s2,0.9,2,2V71.5z M63,38H37v-6.5C37,24.06,42.83,18,50,18s13,6.06,13,13.5V38z"></path></g></svg>