<svg height='100px' width='100px'  fill="#000000" xmlns="http://www.w3.org/2000/svg" xmlns:xlink="http://www.w3.org/1999/xlink" version="1.1" x="0px" y="0px" viewBox="0 0 128 128" style="enable-background:new 0 0 128 128;" xml:space="preserve"><g><path d="M122.9,81.5C108.2,91.1,74.7,110,74.7,110c0,0,0,0-0.1,0c-5,3-10.3,3.3-15.6,2.3c-0.5-0.1-34-4.2-38.9-4.8l-0.1-3.1V67.6   c2.6-0.2,7.6-0.4,8.2-0.5c14.2-0.9,28,2.4,41.9,5.1c2.9,0.6,5,3.1,5,6.1c0,0.2,0,0.5,0,0.7c-0.2,1.4-0.8,2.7-1.8,3.7   c-1.1,1.1-2.7,1.8-4.4,1.8H43.9c-1.1,0-2,0.9-2,1.9c0,0.7,0.4,1.3,0.9,1.6c0.3,0.2,0.6,0.3,1,0.3h21.9c0.7,0,4.6-0.1,7.2-0.3   c1.2-0.1,2.4-0.3,3.6-0.6l3.3-1l37.3-15.7c2.5-1,5.3-0.3,7,1.8C126.5,75.4,125.9,79.5,122.9,81.5z"></path><g><g><path d="M81,15.2c-13,0-23.6,10.6-23.6,23.6c0,13,10.6,23.6,23.6,23.6c13,0,23.6-10.6,23.6-23.6C104.6,25.8,94,15.2,81,15.2z      M81,56.6c-9.8,0-17.8-8-17.8-17.8s8-17.8,17.8-17.8s17.8,8,17.8,17.8S90.8,56.6,81,56.6z"></path></g></g><rect x="2.4" y="63.3" width="13.5" height="44.3"></rect><g><path d="M79.5,47.2c-1.3-0.1-2.3-0.3-3.1-0.6c-0.8-0.3-1.4-0.5-1.7-0.7l1.1-3c0.6,0.3,1.3,0.6,2.2,0.8c0.8,0.2,1.7,0.4,2.6,0.4    c1,0,1.8-0.1,2.2-0.4s0.6-0.7,0.6-1.2c0-0.3-0.1-0.6-0.2-0.8c-0.2-0.2-0.4-0.4-0.7-0.6c-0.3-0.2-0.7-0.4-1.1-0.6    c-0.4-0.2-1-0.4-1.5-0.6c-0.6-0.2-1.1-0.4-1.7-0.7c-0.5-0.2-1-0.6-1.5-0.9c-0.4-0.4-0.8-0.8-1.1-1.3c-0.3-0.5-0.4-1.2-0.4-1.9    c0-0.6,0.1-1.1,0.2-1.6c0.2-0.5,0.4-1,0.8-1.4c0.3-0.4,0.8-0.8,1.3-1.1c0.5-0.3,1.2-0.5,2-0.7v-2.8h3.2v2.7    c0.9,0.1,1.7,0.2,2.3,0.4c0.6,0.2,1.2,0.3,1.5,0.5l-0.8,3.1c-0.6-0.2-1.2-0.4-2-0.6c-0.7-0.2-1.5-0.3-2.4-0.3    c-0.8,0-1.4,0.1-1.8,0.4c-0.4,0.3-0.5,0.6-0.5,1.1c0,0.3,0.1,0.5,0.2,0.7c0.1,0.2,0.3,0.4,0.5,0.5c0.2,0.2,0.5,0.3,0.9,0.5    c0.4,0.1,0.8,0.3,1.3,0.5c0.8,0.3,1.5,0.6,2.1,0.9c0.6,0.3,1.2,0.7,1.7,1.1c0.5,0.4,0.8,0.9,1.1,1.5c0.3,0.6,0.4,1.2,0.4,2    c0,0.5-0.1,1-0.2,1.5s-0.4,1-0.8,1.4c-0.4,0.4-0.8,0.8-1.4,1.1c-0.6,0.3-1.3,0.5-2.1,0.7v3.1h-3.2V47.2z"></path></g></g></svg>