<svg height='100px' width='100px'  fill="#000000" xmlns="http://www.w3.org/2000/svg" xmlns:xlink="http://www.w3.org/1999/xlink" version="1.1" x="0px" y="0px" viewBox="0 0 65 65" enable-background="new 0 0 65 65" xml:space="preserve"><path d="M33.791,41.399L32.5,38.784l-1.291,2.615c-0.219,0.442-0.641,0.749-1.13,0.82l-2.885,0.419l2.088,2.035  c0.353,0.345,0.515,0.841,0.431,1.328l-0.493,2.873l2.581-1.357c0.219-0.114,0.458-0.172,0.698-0.172s0.479,0.058,0.698,0.172  l2.581,1.357l-0.493-2.873c-0.083-0.487,0.078-0.983,0.432-1.328l2.087-2.035L34.92,42.22  C34.432,42.148,34.009,41.842,33.791,41.399z"></path><path d="M58.85,2.728c-0.003-0.053-0.008-0.105-0.016-0.158c-0.008-0.047-0.017-0.094-0.028-0.139  c-0.012-0.047-0.026-0.092-0.042-0.138c-0.017-0.046-0.034-0.092-0.056-0.136c-0.021-0.043-0.044-0.085-0.068-0.126  s-0.05-0.081-0.078-0.12c-0.028-0.04-0.061-0.077-0.094-0.114c-0.032-0.036-0.064-0.07-0.1-0.103  c-0.035-0.032-0.072-0.062-0.11-0.09c-0.042-0.032-0.086-0.062-0.131-0.089c-0.021-0.012-0.037-0.027-0.058-0.039  c-0.021-0.011-0.042-0.016-0.062-0.026c-0.048-0.023-0.097-0.043-0.146-0.061c-0.047-0.017-0.093-0.031-0.14-0.043  c-0.045-0.011-0.091-0.02-0.137-0.027c-0.056-0.008-0.109-0.014-0.164-0.017c-0.022-0.001-0.042-0.006-0.064-0.006H40.798  c-0.035,0-0.067,0.008-0.103,0.01c-0.03,0.002-0.061,0.005-0.09,0.009c-0.069,0.009-0.136,0.021-0.201,0.04  c-0.026,0.007-0.052,0.015-0.078,0.024c-0.065,0.022-0.129,0.047-0.19,0.077C40.11,1.47,40.085,1.484,40.06,1.499  c-0.058,0.033-0.112,0.068-0.165,0.108c-0.025,0.02-0.05,0.04-0.074,0.062c-0.049,0.042-0.096,0.087-0.139,0.136  c-0.021,0.024-0.041,0.049-0.062,0.074c-0.042,0.054-0.08,0.111-0.115,0.171c-0.008,0.014-0.019,0.025-0.026,0.039L32.5,15.004  L25.522,2.088c-0.008-0.015-0.019-0.026-0.028-0.041c-0.035-0.06-0.073-0.116-0.115-0.17c-0.019-0.024-0.038-0.048-0.059-0.071  c-0.045-0.05-0.093-0.097-0.144-0.141c-0.022-0.019-0.044-0.038-0.068-0.056c-0.055-0.042-0.112-0.079-0.172-0.113  c-0.023-0.013-0.046-0.026-0.07-0.038c-0.063-0.031-0.127-0.057-0.194-0.079c-0.025-0.008-0.05-0.017-0.076-0.023  c-0.065-0.018-0.132-0.031-0.2-0.04c-0.031-0.004-0.063-0.007-0.094-0.009c-0.034-0.002-0.066-0.01-0.101-0.01H7.644  c-0.021,0-0.042,0.005-0.063,0.006C7.525,1.306,7.471,1.312,7.416,1.32C7.369,1.327,7.323,1.335,7.278,1.347  C7.231,1.359,7.186,1.373,7.14,1.39c-0.051,0.019-0.1,0.039-0.149,0.062c-0.02,0.01-0.041,0.015-0.061,0.025  C6.91,1.488,6.894,1.503,6.875,1.515C6.828,1.543,6.784,1.573,6.741,1.606C6.703,1.634,6.667,1.663,6.633,1.694  C6.597,1.728,6.563,1.763,6.53,1.8C6.498,1.836,6.467,1.872,6.439,1.91C6.41,1.95,6.384,1.991,6.359,2.033  C6.335,2.074,6.312,2.114,6.292,2.156c-0.021,0.045-0.04,0.091-0.056,0.138C6.22,2.339,6.206,2.384,6.194,2.43  c-0.011,0.046-0.02,0.092-0.027,0.14C6.158,2.623,6.153,2.675,6.15,2.729C6.149,2.752,6.144,2.773,6.144,2.797  c0,0.022,0.006,0.043,0.007,0.065C6.152,2.917,6.158,2.97,6.167,3.023c0.007,0.047,0.016,0.094,0.027,0.14  C6.206,3.209,6.22,3.255,6.236,3.3c0.019,0.051,0.039,0.1,0.062,0.149c0.01,0.02,0.015,0.041,0.025,0.061L20.38,29.527  c-4.342,3.532-7.125,8.91-7.125,14.931c0,10.611,8.633,19.245,19.245,19.245c10.612,0,19.246-8.634,19.246-19.245  c0-6.02-2.782-11.398-7.124-14.93L58.676,3.51c0.01-0.019,0.015-0.039,0.024-0.058c0.024-0.05,0.045-0.101,0.064-0.154  c0.016-0.044,0.029-0.088,0.041-0.133c0.012-0.047,0.021-0.095,0.028-0.144c0.008-0.053,0.014-0.105,0.016-0.158  c0.001-0.022,0.007-0.044,0.007-0.066C58.856,2.773,58.851,2.751,58.85,2.728z M42.075,42.665l-3.699,3.606l0.874,5.092  c0.097,0.563-0.135,1.132-0.597,1.468c-0.262,0.189-0.571,0.286-0.882,0.286c-0.239,0-0.479-0.057-0.698-0.172L32.5,50.54  l-4.573,2.405c-0.506,0.266-1.118,0.221-1.58-0.114c-0.462-0.336-0.693-0.904-0.597-1.468l0.874-5.092l-3.699-3.606  c-0.409-0.398-0.556-0.995-0.379-1.538c0.177-0.543,0.646-0.938,1.211-1.021l5.112-0.742l2.287-4.634  c0.253-0.512,0.774-0.836,1.345-0.836s1.093,0.324,1.345,0.836l2.287,4.634l5.112,0.742c0.564,0.082,1.034,0.478,1.211,1.021  S42.484,42.267,42.075,42.665z"></path></svg>