<svg height='100px' width='100px'  fill="#000000" xmlns="http://www.w3.org/2000/svg" xmlns:xlink="http://www.w3.org/1999/xlink" version="1.1" x="0px" y="0px" viewBox="0 0 100.0 100"><path d="M546,75 l108,0 l-3,39 c-5,85,57,111,115,48 l26,-30 l76,76 l-30,26 c-61,58,-35,121,48,115 l39,-3 l0,108 l-39,-3 c-86,-7,-114,60,-49,116 l29,26 l-74,75 l-26,-31 c-55,-64,-119,-35,-116,49 l2,39 l-105,0 l2,-39 c3,-84,-59,-110,-115,-48 l-26,31 l-77,-77 l31,-26 c62,-54,34,-117,-48,-114 l-39,2 l0,-108 l39,3 c83,6,112,-59,49,-115 l-31,-26 l76,-76 l26,30 c57,60,117,35,114,-48 Z M600,285 c-62,0,-116,53,-116,115 c0,62,53,116,116,116 c62,0,116,-54,116,-116 c0,-62,-54,-115,-116,-115 Z M600,-100 c-275,0,-500,225,-500,500 c0,275,225,500,500,500 c275,0,500,-225,500,-500 c0,-275,-225,-500,-500,-500 Z M210,856 l-160,259 l375,200 l175,-315 c-150,0,-306,-73,-390,-144 Z M990,856 c-84,71,-240,144,-390,144 l175,315 l375,-150 Z M990,856 " fill="#000000" stroke="none" stroke-dasharray="none" stroke-linecap="inherit" stroke-linejoin="inherit" stroke-width="1" transform="matrix(0.05,0.0,0.0,-0.05,20.0,80.0)"></path></svg>