<svg xmlns="http://www.w3.org/2000/svg" xmlns:xlink="http://www.w3.org/1999/xlink" width="100" height="100" viewBox="0 0 100 100"><g><g transform="translate(50 50) scale(0.69 0.69) rotate(0) translate(-50 -50)" style="fill:#000000"><svg fill="#000000" xmlns:dc="http://purl.org/dc/elements/1.1/" xmlns:cc="http://creativecommons.org/ns#" xmlns:rdf="http://www.w3.org/1999/02/22-rdf-syntax-ns#" xmlns:svg="http://www.w3.org/2000/svg" xmlns="http://www.w3.org/2000/svg" xmlns:sodipodi="http://sodipodi.sourceforge.net/DTD/sodipodi-0.dtd" xmlns:inkscape="http://www.inkscape.org/namespaces/inkscape" version="1.1" x="0px" y="0px" viewBox="0 0 100 100"><g transform="translate(0,-952.36218)"><path style="font-size:medium;font-style:normal;font-variant:normal;font-weight:normal;font-stretch:normal;text-indent:0;text-align:start;text-decoration:none;line-height:normal;letter-spacing:normal;word-spacing:normal;text-transform:none;direction:ltr;block-progression:tb;writing-mode:lr-tb;text-anchor:start;baseline-shift:baseline;opacity:1;color:#000000;fill:#000000;fill-opacity:1;stroke:none;stroke-width:6;marker:none;visibility:visible;display:inline;overflow:visible;enable-background:accumulate;font-family:Sans;-inkscape-font-specification:Sans" d="M 34.6875 17 A 3.0003 3.0003 0 0 0 32 20 L 32 39 L 5 39 A 3.0003 3.0003 0 0 0 4.6875 39 A 3.0003 3.0003 0 0 0 2 42 L 2 80 A 3.0003 3.0003 0 0 0 5 83 L 95 83 A 3.0003 3.0003 0 0 0 98 80 L 98 54 A 3.0003 3.0003 0 0 0 95 51 L 68 51 L 68 20 A 3.0003 3.0003 0 0 0 65 17 L 35 17 A 3.0003 3.0003 0 0 0 34.6875 17 z M 38 23 L 62 23 L 62 77 L 38 77 L 38 23 z M 8 45 L 32 45 L 32 77 L 8 77 L 8 45 z M 68 57 L 92 57 L 92 77 L 68 77 L 68 57 z " transform="translate(0,952.36218)"></path></g></svg></g></g></svg>