<svg height='100px' width='100px'  fill="#000000" xmlns="http://www.w3.org/2000/svg" data-name="Camada 1" viewBox="0 0 100 100" x="0px" y="0px"><title>Purchase_2</title><path d="M95,85.03,89.76,23H75.83a26.00412,26.00412,0,0,0-51.66,0H10.24L5,85.03A13.81207,13.81207,0,0,0,18.76,100H81.23A13.82742,13.82742,0,0,0,95,85.03ZM50,6A20.04164,20.04164,0,0,1,69.78,23H30.22A20.04153,20.04153,0,0,1,50,6ZM86.99,91.47A7.73768,7.73768,0,0,1,81.23,94H18.76a7.81421,7.81421,0,0,1-7.78-8.47L15.76,29H84.24l4.78,56.53A7.76141,7.76141,0,0,1,86.99,91.47Z"></path><polygon points="46.73 72.87 34.768 60.909 39.011 56.667 46.73 64.386 60.987 50.13 65.229 54.372 46.73 72.87"></polygon></svg>