<svg height='100px' width='100px'  fill="#000000" xmlns="http://www.w3.org/2000/svg" xmlns:xlink="http://www.w3.org/1999/xlink" version="1.1" x="0px" y="0px" viewBox="0 0 20 20" style="enable-background:new 0 0 20 20;" xml:space="preserve"><g><path d="M17.8,8.3c-0.2-0.9-0.6-1.8-1.1-2.6l1-2.1l-1.4-1.4l-2.1,1c-0.8-0.5-1.6-0.8-2.5-1L11,0H9L8.2,2.2C7.3,2.4,6.5,2.8,5.7,3.3   l-2.1-1L2.2,3.6l1,2.1c-0.5,0.8-0.8,1.6-1,2.5L0,9v2l2.2,0.8c0.2,0.9,0.6,1.8,1,2.5l-1,2.1l1.4,1.4l2.1-1c0.8,0.5,1.6,0.9,2.5,1.1   L9,20h2l0.8-2.2c0.3-0.1,0.7-0.2,1-0.3l-1.6-1.6C7.4,16.6,4,13.8,4,10c0-3.3,2.7-6,6-6c3.7,0,6.5,3.3,5.9,6.8l1.7,1.7   c0.1-0.3,0.2-0.5,0.2-0.8L20,11V9L17.8,8.3z"></path><path d="M19.6,17.4l-5.9-5.9C15.1,8.4,12.2,5.1,9,6l1.8,1.8c0.8,0.8,0.8,2.1,0,2.8c-0.7,0.8-2.1,0.8-2.8,0L6.2,8.9   c-0.9,2.8,2,6,5.3,4.7l5.9,5.9c0.6,0.6,1.5,0.6,2.1,0C20.1,19,20.1,18,19.6,17.4z"></path></g></svg>