<svg height='100px' width='100px'  fill="#000000" xmlns="http://www.w3.org/2000/svg" data-name="Layer 1" viewBox="0 0 100 100" x="0px" y="0px"><title>Artboard 10</title><path d="M30,91.66A7.34,7.34,0,1,1,37.3,99,7.35,7.35,0,0,1,30,91.66Zm40.32,0A7.34,7.34,0,1,0,62.93,99,7.35,7.35,0,0,0,70.27,91.66ZM7.12,35.09h6.2l9.9,34.41a11.13,11.13,0,0,0,10.69,8H68.75a11.13,11.13,0,0,0,10.7-8L82.16,60a12.28,12.28,0,0,1-4.81,1,12.1,12.1,0,0,1-6.82-2.09,12.22,12.22,0,0,1-18.32-6A12.2,12.2,0,0,1,40.67,38.31H26.58l-3-9.07a7.47,7.47,0,0,0-7.1-5.15H7.26a5.58,5.58,0,0,0-5.52,4.35A5.5,5.5,0,0,0,7.12,35.09ZM93.85,16.59A5.72,5.72,0,0,0,96,23.09a5.73,5.73,0,0,1,0,9.34,5.72,5.72,0,0,0-2.11,6.5,5.71,5.71,0,0,1-5.42,7.56H88.3a5.73,5.73,0,0,0-5.46,4A5.72,5.72,0,0,1,74,53.39a5.72,5.72,0,0,0-6.83,0,5.72,5.72,0,0,1-8.88-2.89,5.73,5.73,0,0,0-5.46-4h-.13a5.71,5.71,0,0,1-5.42-7.56,5.72,5.72,0,0,0-2.11-6.5,5.72,5.72,0,0,1,0-9.34,5.72,5.72,0,0,0,2.11-6.5A5.71,5.71,0,0,1,52.64,9h.13a5.73,5.73,0,0,0,5.46-4,5.72,5.72,0,0,1,8.88-2.89,5.72,5.72,0,0,0,3.42,1.13A5.72,5.72,0,0,0,74,2.13,5.72,5.72,0,0,1,82.83,5,5.73,5.73,0,0,0,88.3,9h.13a5.71,5.71,0,0,1,5.42,7.56Zm-15.38,5a3.19,3.19,0,0,0-4.51,0l-5.53,5.53-1.32-1.32a3.19,3.19,0,0,0-4.51,4.51l1.32,1.32,2.26,2.26a3.19,3.19,0,0,0,4.51,0l2.26-2.26,5.53-5.53A3.19,3.19,0,0,0,78.47,21.61Z"></path></svg>