<svg height='100px' width='100px'  fill="#000000" xmlns="http://www.w3.org/2000/svg" xmlns:xlink="http://www.w3.org/1999/xlink" version="1.1" x="0px" y="0px" viewBox="0 0 100 100" enable-background="new 0 0 100 100" xml:space="preserve"><path d="M49.1,45.7V33.2c0-1.1-0.8-2.1-1.9-2.2c-1.3-0.1-2.3,0.8-2.4,2c-6.8,6.5-16.7,9-22.6,10v-2H8.7c-2.7,0-4.9,2.2-4.9,4.9V48  H2.3c-0.9,0-1.6,0.7-1.6,1.6v6.1c0,0.9,0.7,1.6,1.6,1.6h1.5v1.9c0,2.7,2.2,4.9,4.9,4.9h1.2l5.6,18.6l0.8-0.2l2.8-0.7l0.8-0.2  l-2.3-17.5h4.5v-2c5.9,1,15.7,3.5,22.6,10c0.1,1.2,1.1,2.2,2.4,2c1.1-0.1,1.9-1.1,1.9-2.2V59.3c2.8-1,4.7-3.7,4.7-6.8  C53.8,49.4,51.9,46.7,49.1,45.7z M17.1,59H8.9V46.1h8.1V59z M61.3,23.8c-8.4,8.4-8.7,21.7-0.9,30.5l0.2,0.2  c-0.8,1.8-2.3,4.1-4.6,5.2c-0.8,0.4-0.6,1.5,0.3,1.6c2.5,0.4,6.1,0,9.5-2.6l0,0c8.5,5,19.7,3.9,27-3.5c8.7-8.7,8.7-22.8,0-31.5  C84.1,15.1,70,15.1,61.3,23.8z M71.8,41.8h-4.6v-4.6h4.6V41.8z M79.4,41.8h-4.6v-4.6h4.6V41.8z M87,41.8h-4.6v-4.6H87V41.8z"></path></svg>