<svg height='100px' width='100px'  fill="#000000" xmlns="http://www.w3.org/2000/svg" xmlns:xlink="http://www.w3.org/1999/xlink" version="1.1" x="0px" y="0px" viewBox="0 0 8 8" enable-background="new 0 0 8 8" xml:space="preserve"><path fill-rule="evenodd" clip-rule="evenodd" d="M7,8H1C0.448,8,0,7.553,0,7V1c0-0.552,0.448-1,1-1h3v1H1.25  C1.112,1,1,1.112,1,1.25v5.5C1,6.888,1.112,7,1.25,7h5.5C6.888,7,7,6.888,7,6.75V5.5c0.573-0.573,1-1,1-1V7C8,7.553,7.553,8,7,8z   M5.643,4.891C5.64,4.894,5.636,4.893,5.633,4.895C5.565,4.959,5.476,5,5.375,5C5.168,5,5,4.832,5,4.625V3.604  C3.878,3.762,2.904,4.698,2.304,5.917c0-0.007,0-0.01-0.002-0.007C2.271,5.965,2.222,6,2.167,6C2.075,6,2,5.903,2,5.783  c0-2.228,1.294-4.071,3-4.46V0.375C5,0.168,5.168,0,5.375,0C5.484,0,5.58,0.048,5.648,0.123c0.67,0.575,2.1,1.86,2.1,1.86  c0.332,0.285,0.332,0.748,0,1.033C7.748,3.016,6.3,4.327,5.643,4.891z"></path></svg>