<svg height='100px' width='100px'  fill="#000000" xmlns="http://www.w3.org/2000/svg" xmlns:xlink="http://www.w3.org/1999/xlink" version="1.1" x="0px" y="0px" viewBox="0 0 550 550" enable-background="new 0 0 550 550" xml:space="preserve"><g><path d="M136.854,413.058c1.326-0.347,2.673-0.548,4.041-0.548l309.03,0.08h5.5c9.38,0,16.99-7.609,16.99-16.99V35.77   c0-9.38-7.61-16.77-16.99-16.77h-326.86c-28.16,0-50.98,23.039-50.98,51.199v409.82c0,28.16,22.82,50.98,50.98,50.98h329.39   c7.99,0,14.46-6.471,14.46-14.461c0-7.989-6.47-14.46-14.46-14.46h-8.03h-309.03c-3.746,0-7.349-0.601-10.728-1.7   c-18.808-5.256-32.65-22.535-32.65-42.998C97.518,434.56,114.731,415.694,136.854,413.058z M200.535,103.579h148.93   c5.523,0,10,4.478,10,10c0,5.523-4.477,10-10,10h-148.93c-5.523,0-10-4.477-10-10C190.535,108.057,195.012,103.579,200.535,103.579   z M163.545,156.06h222.91c5.523,0,10,4.477,10,10c0,5.522-4.477,10-10,10h-222.91c-5.523,0-10-4.478-10-10   C153.545,160.536,158.022,156.06,163.545,156.06z M163.545,208.529h222.91c5.523,0,10,4.478,10,10c0,5.523-4.477,10-10,10h-222.91   c-5.523,0-10-4.477-10-10C153.545,213.007,158.022,208.529,163.545,208.529z"></path><g><path d="M441.197,432.809l-299.032-0.078c-10.032,0-18.685,6.027-22.527,14.65h321.56V432.809z"></path><path d="M142.167,482.03h299.03v-14.649h-321.56C123.48,476.004,132.134,482.03,142.167,482.03z"></path></g></g></svg>