<svg height='100px' width='100px'  fill="#000000" xmlns="http://www.w3.org/2000/svg" xmlns:xlink="http://www.w3.org/1999/xlink" version="1.1" x="0px" y="0px" viewBox="0 0 100 100" style="enable-background:new 0 0 100 100;" xml:space="preserve"><polygon points="8.8,33 8.8,67.1 30.1,67.1 54,86.5 54,13.5 30.1,33 "></polygon><path d="M75.7,25.4c6.4,6.6,10,15.3,10,24.6s-3.5,18.1-10,24.6l4,3.8c7.5-7.7,11.5-17.7,11.5-28.4c0-10.8-4-20.8-11.5-28.4  L75.7,25.4z"></path><path d="M70.6,30.5l-3.8,3.8C71,38.5,73.3,44,73.3,50c0,5.8-2.4,11.5-6.6,15.7l3.8,3.8c5.3-5.3,8-12.2,8-19.5  C78.6,42.7,75.9,35.8,70.6,30.5z"></path></svg>