<svg height='100px' width='100px'  fill="#000000" xmlns="http://www.w3.org/2000/svg" xmlns:xlink="http://www.w3.org/1999/xlink" version="1.1" x="0px" y="0px" viewBox="0 0 100 100" style="enable-background:new 0 0 100 100;" xml:space="preserve"><polygon points="2.5,33.3 2.5,66.9 23.7,66.9 47.4,86.3 47.4,13.9 23.7,33.3 "></polygon><path d="M82.5,12.3c-1.4-1.4-3.6-1.4-5.1-0.2c-1.4,1.3-1.4,3.6-0.2,5.1c8.5,8.9,13,20.4,13,32.8s-4.7,24.1-13,32.8  c-1.4,1.4-1.3,3.8,0.2,5.1c0.7,0.7,1.6,1.1,2.5,1.1s2-0.4,2.5-1.1c9.8-10.1,15-23.7,15-37.8S92.1,22.4,82.5,12.3z"></path><path d="M73.4,21.1c-1.4-1.4-3.6-1.4-5.1,0c-1.4,1.4-1.4,3.6,0,5.1c6.2,6.3,9.6,14.8,9.6,23.9S74.5,67.5,68.4,74  c-1.4,1.4-1.3,3.8,0,5.1c0.7,0.7,1.6,1.1,2.5,1.1s1.8-0.4,2.5-1.1C81,71.3,85,61,85,50.1S81,28.9,73.4,21.1z"></path><path d="M64.6,30c-1.4-1.4-3.6-1.4-5.1,0c-1.4,1.4-1.4,3.6,0,5.1c4,4,6.2,9.2,6.2,14.8s-2.2,10.9-6.2,14.8c-1.4,1.4-1.4,3.6,0,5.1  c0.7,0.7,1.6,1.1,2.5,1.1c0.9,0,1.8-0.4,2.5-1.1c5.4-5.4,8.3-12.5,8.3-20.1S69.8,35.4,64.6,30z"></path></svg>