<svg height='100px' width='100px'  fill="#000000" xmlns="http://www.w3.org/2000/svg" xmlns:xlink="http://www.w3.org/1999/xlink" version="1.1" x="0px" y="0px" viewBox="0 0 64 64" enable-background="new 0 0 64 64" xml:space="preserve"><g><path d="M32.1,5C17.2,5,5,17.2,5,32.1c0,14.9,12.2,27.1,27.1,27.1s27.1-12.2,27.1-27.1C59.2,17.2,47.1,5,32.1,5z M52.6,21.5h-9   c-1.4-4.6-3.8-8.8-6.9-12C43.7,10.9,49.5,15.4,52.6,21.5z M55.2,32.1c0,2.2-0.3,4.4-0.9,6.4h-9.6c0.4-2.1,0.6-4.2,0.6-6.4   c0-2.2-0.2-4.5-0.6-6.6h9.6C54.9,27.6,55.2,29.8,55.2,32.1z M32.1,53.7c-3.3-2.8-5.9-6.7-7.4-11.2h14.8C38,47,35.4,50.9,32.1,53.7z    M23.6,38.5c-0.4-2.1-0.6-4.2-0.6-6.4c0-2.3,0.2-4.5,0.7-6.6h16.9c0.4,2.1,0.7,4.4,0.7,6.6c0,2.2-0.2,4.3-0.6,6.4H23.6z M9,32.1   c0-2.3,0.3-4.5,1-6.6h9.6c-0.4,2.1-0.6,4.4-0.6,6.6c0,2.2,0.2,4.3,0.6,6.4H9.9C9.3,36.5,9,34.3,9,32.1z M32.1,10.5   c3.2,2.7,5.8,6.6,7.3,11H24.8C26.3,17.1,28.9,13.3,32.1,10.5z M27.4,9.5c-3.1,3.2-5.4,7.4-6.9,12h-9C14.8,15.4,20.5,10.9,27.4,9.5z    M11.5,42.5h9c1.4,4.7,3.8,8.9,6.9,12.2C20.4,53.3,14.6,48.7,11.5,42.5z M36.8,54.7c3.1-3.3,5.5-7.5,6.9-12.2h9   C49.6,48.7,43.8,53.3,36.8,54.7z"></path></g></svg>